<?xml version="1.0" standalone="no"?>
<!DOCTYPE svg PUBLIC "-//W3C//DTD SVG 20010904//EN"
 "http://www.w3.org/TR/2001/REC-SVG-20010904/DTD/svg10.dtd">
<svg version="1.0" xmlns="http://www.w3.org/2000/svg"
 width="512.000000pt" height="512.000000pt" viewBox="0 0 512.000000 512.000000"
 preserveAspectRatio="xMidYMid meet">
<metadata>
Created by potrace 1.14, written by Peter Selinger 2001-2017
</metadata>
<g transform="translate(0.000000,512.000000) scale(0.100000,-0.100000)"
fill="#000000" stroke="none">
<path d="M3833 4000 c-13 -5 -23 -6 -23 -2 0 3 -8 -5 -17 -18 -17 -24 -21
-109 -8 -151 7 -20 -7 -26 -60 -25 -22 1 -43 -3 -47 -9 -5 -6 -8 -6 -8 2 0 14
-39 5 -41 -11 -1 -6 -2 -27 -3 -46 l-1 -34 -120 2 c-66 1 -200 3 -297 5 -177
3 -210 9 -192 38 12 20 13 60 2 102 -8 33 -12 37 -31 31 -73 -21 -85 -34 -126
-123 -4 -7 -9 -12 -12 -10 -3 2 -12 -1 -20 -6 -8 -6 -52 -9 -99 -8 -47 2 -94
3 -105 3 -11 1 -36 5 -56 10 -30 8 -41 19 -58 55 -17 35 -26 45 -45 45 -14 0
-27 4 -30 9 -12 18 -80 -12 -73 -32 2 -7 1 -22 -4 -33 -5 -13 -2 -32 7 -49 8
-15 12 -30 10 -33 -3 -2 -38 -6 -78 -8 -40 -1 -121 -5 -180 -8 -97 -5 -108 -3
-109 12 0 9 -3 28 -5 42 -4 23 0 26 28 28 47 4 59 20 42 59 l-14 32 -197 -4
c-109 -2 -198 -4 -198 -5 0 -3 -475 -11 -476 -8 0 2 -2 30 -5 63 -3 33 -11 65
-18 70 -15 11 -246 12 -288 0 -16 -4 -29 -12 -29 -19 -1 -6 -3 -22 -6 -36 -2
-14 -4 -37 -3 -51 0 -24 -3 -26 -36 -23 -41 3 -49 -10 -48 -80 l1 -46 -66 -1
c-36 -1 -95 -2 -131 -3 -139 -4 -137 4 -134 -366 5 -594 5 -622 -10 -638 -3
-2 -1 -13 5 -23 5 -11 6 -19 2 -19 -8 0 -14 -119 -17 -292 -1 -62 -4 -78 -16
-78 -11 0 -12 -2 -3 -8 7 -4 12 -16 12 -27 0 -11 3 -92 7 -180 3 -88 7 -311 8
-495 1 -184 6 -343 10 -353 5 -10 4 -17 -2 -17 -18 0 8 -54 37 -75 24 -19 42
-20 284 -20 143 0 261 3 264 8 2 4 9 4 15 0 11 -6 354 -13 771 -16 97 -1 177
-5 177 -10 0 -4 6 -5 12 -1 11 7 53 10 61 4 1 -1 79 -4 172 -6 208 -6 215 -6
215 -15 0 -10 64 -5 72 6 5 6 8 5 8 -3 0 -7 5 -10 12 -6 18 11 82 12 96 1 8
-6 12 -6 12 0 0 6 15 9 33 9 17 -1 51 1 75 5 23 3 45 3 47 -1 3 -4 16 -6 30
-5 14 2 25 -2 25 -8 0 -9 2 -9 8 -1 9 14 64 13 74 -1 5 -6 8 -6 8 1 0 6 18 10
40 10 22 -1 40 -5 40 -10 0 -5 6 -4 13 3 10 8 17 7 27 -2 7 -7 10 -7 7 -1 -8
14 95 13 105 -1 5 -6 8 -6 8 1 0 14 52 13 62 0 4 -6 13 -4 22 3 9 8 16 9 16 4
0 -5 7 -10 15 -10 8 0 12 4 9 9 -8 12 10 10 24 -4 9 -9 12 -9 12 0 0 7 5 12
11 12 5 0 7 -6 3 -12 -6 -10 -4 -10 8 0 12 10 17 10 20 1 3 -9 9 -9 26 0 17 9
22 9 22 0 0 -8 4 -8 15 1 12 10 15 10 15 0 0 -9 3 -10 13 -1 10 8 17 7 27 -2
10 -9 11 -9 6 1 -9 14 10 17 19 2 4 -6 12 -7 18 -3 20 13 207 13 207 -1 0 -8
2 -8 8 0 4 7 21 12 37 13 17 0 176 2 355 5 179 2 340 7 359 11 49 10 98 45
117 84 12 24 17 68 19 151 1 64 5 122 8 127 4 6 4 13 0 17 -9 9 -10 134 -2
173 5 22 3 31 -4 26 -6 -3 -7 -1 -3 5 11 18 15 74 20 266 6 197 15 328 32 466
4 30 8 90 8 132 1 43 5 78 9 78 4 0 3 8 -2 19 -6 10 -8 20 -6 23 5 4 15 198
18 335 1 40 4 73 7 73 3 0 5 68 6 150 0 83 -4 150 -9 150 -4 0 -6 4 -3 8 8 13
4 157 -5 182 -1 3 -1 8 0 12 2 16 -30 78 -46 86 -11 7 -17 25 -18 57 -2 25 -7
51 -13 57 -5 5 -46 11 -90 11 -75 2 -81 4 -85 25 -2 12 1 22 6 22 7 0 7 4 0
11 -8 8 -8 20 -3 35 5 13 6 24 2 24 -4 0 -7 14 -8 30 -1 17 -4 33 -8 37 -10
11 -588 14 -613 3z"/>
</g>
</svg>
